# xmcd
#
# Track frame offsets: 
#        150
#        22392
#        43107
#        63945
#        81875
#        103550
#        117140
#        138037
#        159235
#        180960
#        201445
#        217205
#
# Disc length: 3115 seconds
#
# Revision: 2
# Processed by: cddbd v1.5.2PL0 Copyright (c) Steve Scherf et al.
# Submitted via: ExactAudioCopy v1.0b1
#
DISCID=a40c290c
DTITLE=Various Artist - Body And Soul Vol. 15 Tender Moments Disc 1
DYEAR=1999
DGENRE=Soul
TTITLE0=Patti LaBelle - Somebody Loves You Baby (You Know Who It Is)
TTITLE1=Quincy Jones Featuring James Ingram - Just Once
TTITLE2=Jodeci - Come And Talk To Me
TTITLE3=Smokey Robinson - Everything You Touch
TTITLE4=Chaka Khan - Through The Fire
TTITLE5=Teddy Pendergrass - I Can't Live Without Your Love
TTITLE6=Jennifer Holliday - I Am Love
TTITLE7=Ralph Tresvant - Sensitivity
TTITLE8=O'Jays - Your Body's Here With Me (But Your Mind's On The Othe
TTITLE8=r Side Of Town)
TTITLE9=Isley Brothers - Voyage To Atlantis
TTITLE10=Manhattans - Don't Take Your Love
TTITLE11=Temprees - Dedicated To The One I Love
EXTD=
EXTT0=
EXTT1=
EXTT2=
EXTT3=
EXTT4=
EXTT5=
EXTT6=
EXTT7=
EXTT8=
EXTT9=
EXTT10=
EXTT11=
PLAYORDER=
